# xmcd
#
# Track frame offsets: 
#        182
#        14247
#        30740
#        50705
#        68932
#        87470
#        108560
#        124752
#        136617
#        152005
#        168977
#        189827
#        200987
#        215147
#        233630
#        250930
#        266950
#        283090
#        304325
#        319052
#
# Disc length: 4497 seconds
#
# Revision: 5
# Processed by: cddbd v1.5.2PL0 Copyright (c) Steve Scherf et al.
# Submitted via: ExactAudioCopy v1.1
#
DISCID=36118f14
DTITLE=Ray Charles - The Complete Country and Western Recordings 1959-19
DTITLE=86 - Disc 3
DYEAR=1998
DGENRE=Country
TTITLE0=Ring Of Fire
TTITLE1=What Am I Living For
TTITLE2=The Three Bells
TTITLE3=All I Ever Need Is You
TTITLE4=Wichita Lineman
TTITLE5=Down In The Valley
TTITLE6=Take Me Home, Country Roads
TTITLE7=Never Ending Song Of Love
TTITLE8=Come Live With Me
TTITLE9=Sunshine
TTITLE10=We Had it All
TTITLE11=(Turn Out The Light And) Love Me Tonight
TTITLE12=I Wish You Were Here Tonight
TTITLE13=Ain't Your Memory Got No Pride At All
TTITLE14=Born To Love Me
TTITLE15=I Don't Want No Stranger Sleepin' In My Bed
TTITLE16=Let Your Love Flow
TTITLE17=You Feel Good All Over
TTITLE18=You've Got The Longest Leaving Act In Town
TTITLE19=String Bean
EXTD=
EXTT0=
EXTT1=
EXTT2=
EXTT3=
EXTT4=
EXTT5=
EXTT6=
EXTT7=
EXTT8=
EXTT9=
EXTT10=
EXTT11=
EXTT12=
EXTT13=
EXTT14=
EXTT15=
EXTT16=
EXTT17=
EXTT18=
EXTT19=
PLAYORDER=
